<svg class="svg-icon"
  style="width: 1em; height: 1em;vertical-align: middle;fill: currentColor;overflow: hidden;"
  viewBox="0 0 1024 1024" version="1.1" xmlns="http://www.w3.org/2000/svg">
  <path
    d="M512 533.333333a192 192 0 1 1 0-384 192 192 0 0 1 0 384z m0-42.666666a149.333333 149.333333 0 1 0 0-298.666667 149.333333 149.333333 0 0 0 0 298.666667z"
    fill="#fff" />
  <path
    d="M512 490.666667a21.333333 21.333333 0 1 1 0 42.666666A277.333333 277.333333 0 0 0 234.666667 810.666667v42.666666a21.333333 21.333333 0 1 1-42.666667 0v-42.666666a320 320 0 0 1 320-320z"
    fill="#fff" />
  <path d="M597.333333 810.666667l213.333334 0 0 42.666666-213.333334 0 0-42.666666Z" fill="#fff" />
  <path d="M597.333333 682.666667l213.333334 0 0 42.666666-213.333334 0 0-42.666666Z" fill="#fff" />
</svg>